<?xml version="1.0" encoding="iso-8859-1"?>
<!-- Uploaded to: SVG Repo, www.svgrepo.com, Generator: SVG Repo Mixer Tools -->
<!DOCTYPE svg PUBLIC "-//W3C//DTD SVG 1.1//EN" "http://www.w3.org/Graphics/SVG/1.1/DTD/svg11.dtd">
<svg fill="#000000" height="800px" width="800px" version="1.1" id="Capa_1" xmlns="http://www.w3.org/2000/svg" xmlns:xlink="http://www.w3.org/1999/xlink" 
	 viewBox="0 0 466.003 466.003" xml:space="preserve">
<path d="M326.892,11.313c1.829-4.022,0.05-8.765-3.972-10.593c-4.021-1.829-8.766-0.05-10.593,3.972l-79.326,174.511L153.676,4.692
	c-1.828-4.022-6.569-5.802-10.593-3.972c-4.022,1.828-5.801,6.571-3.972,10.593l85.891,188.955v8.222h-10.322c-4.418,0-8,3.582-8,8
	v44.284h-42.407c-4.418,0-8,3.582-8,8v36.645c0,4.418,3.582,8,8,8h42.407v144.585c0,4.418,3.582,8,8,8h36.645c4.418,0,8-3.582,8-8
	V313.418h42.407c4.418,0,8-3.582,8-8v-36.645c0-4.418-3.582-8-8-8h-42.407v-44.284c0-4.418-3.582-8-8-8h-10.322v-8.222
	L326.892,11.313z M251.324,276.773h42.407v20.645h-42.407c-4.418,0-8,3.582-8,8v144.585h-20.645V305.418c0-4.418-3.582-8-8-8
	h-42.407v-20.645h42.407c4.418,0,8-3.582,8-8v-44.284h20.645v44.284C243.324,273.191,246.905,276.773,251.324,276.773z"/>
</svg>